<svg width="32" height="26" viewBox="0 0 32 26" fill="none" xmlns="http://www.w3.org/2000/svg">
<path d="M27.107 2.59118C25.0356 1.62201 22.8208 0.917664 20.5052 0.516602C20.2208 1.03075 19.8886 1.72229 19.6595 2.27241C17.198 1.90223 14.7591 1.90223 12.3429 2.27241C12.1139 1.72229 11.7741 1.03075 11.4871 0.516602C9.16908 0.917664 6.95167 1.6246 4.88026 2.59631C0.70219 8.90992 -0.430415 15.0667 0.135889 21.1361C2.907 23.2055 5.59255 24.4626 8.23277 25.2852C8.88465 24.388 9.46605 23.4343 9.9669 22.4291C9.013 22.0667 8.09937 21.6194 7.2361 21.1001C7.46512 20.9304 7.68914 20.753 7.90557 20.5705C13.1709 23.0333 18.8919 23.0333 24.0943 20.5705C24.3133 20.753 24.5373 20.9304 24.7638 21.1001C23.898 21.6219 22.9818 22.0692 22.0279 22.4317C22.5288 23.4343 23.1077 24.3906 23.7621 25.2877C26.4048 24.4651 29.0929 23.2081 31.864 21.1361C32.5285 14.1001 30.7289 7.99988 27.107 2.59118ZM10.6842 17.4035C9.10363 17.4035 7.8074 15.9279 7.8074 14.131C7.8074 12.3341 9.07595 10.8559 10.6842 10.8559C12.2926 10.8559 13.5887 12.3315 13.5611 14.131C13.5636 15.9279 12.2926 17.4035 10.6842 17.4035ZM21.3157 17.4035C19.735 17.4035 18.4388 15.9279 18.4388 14.131C18.4388 12.3341 19.7073 10.8559 21.3157 10.8559C22.9239 10.8559 24.2202 12.3315 24.1925 14.131C24.1925 15.9279 22.9239 17.4035 21.3157 17.4035Z" fill="white"/>
</svg>
