<svg width="32" height="32" viewBox="0 0 32 32" fill="none" xmlns="http://www.w3.org/2000/svg">
<path d="M22.25 20.6368H18.5V31.8034C22.4769 31.1743 26.0705 29.0689 28.5637 25.9072C31.0568 22.7456 32.2663 18.7601 31.9508 14.7461C31.6352 10.7321 29.8179 6.9846 26.8613 4.25134C23.9048 1.51807 20.0264 0 16 0C11.9736 0 8.09521 1.51807 5.13866 4.25134C2.18211 6.9846 0.364768 10.7321 0.0492349 14.7461C-0.266298 18.7601 0.943173 22.7456 3.43634 25.9072C5.92951 29.0689 9.52305 31.1743 13.5 31.8034V20.6368H9.41668V15.9701H13.5V12.2201C13.7222 7.27569 16.9444 5.3868 23.1667 6.55347V10.4701H21C19.3889 10.5257 18.5555 11.359 18.5 12.9701V15.9701H22.9583" fill="white"/>
</svg>
