<svg width="32" height="28" viewBox="0 0 32 28" fill="none" xmlns="http://www.w3.org/2000/svg">
<path d="M29.8142 0.643429L0.833233 11.8582C0.815991 11.8648 0.799276 11.8728 0.783232 11.8819C0.548224 12.0151 -1.09183 13.0182 1.22075 13.9176L1.2445 13.9264L8.14536 16.1558C8.19801 16.1729 8.25376 16.1783 8.30871 16.1716C8.36367 16.165 8.41649 16.1463 8.4635 16.1171L25.5797 5.43797C25.6217 5.41178 25.6684 5.39415 25.7172 5.38609C25.9554 5.34672 26.641 5.27296 26.2072 5.82361C25.7166 6.44863 14.0256 16.9252 12.728 18.0872C12.6532 18.1543 12.6069 18.2476 12.5986 18.3478L12.0324 25.098C12.0323 25.1668 12.0482 25.2346 12.0789 25.2961C12.1097 25.3576 12.1543 25.4111 12.2093 25.4524C12.2873 25.5016 12.379 25.5243 12.471 25.5173C12.5629 25.5104 12.6502 25.474 12.7199 25.4137L16.82 21.7492C16.8848 21.6913 16.9674 21.6573 17.0542 21.6529C17.1409 21.6485 17.2266 21.6738 17.2969 21.7248L24.4503 26.9187L24.4734 26.9343C24.6466 27.0412 26.5166 28.1294 27.0566 25.6993L31.9943 2.22036C32.0012 2.14598 32.0681 1.32845 31.4837 0.845311C30.8699 0.340293 30.0011 0.595302 29.8705 0.622803C29.8512 0.628167 29.8324 0.635064 29.8142 0.643429Z" fill="white"/>
</svg>
