<svg width="40" height="40" fill="none" xmlns="http://www.w3.org/2000/svg"><path fill-rule="evenodd" clip-rule="evenodd" d="M15.675 36.71a1.5 1.5 0 01-2.121-2.121l4.82-4.821v-7.195l-6.4 3.695-1.764 6.587a1.5 1.5 0 11-2.898-.777l.988-3.689-3.676 2.123a1.5 1.5 0 01-1.5-2.598L6.8 25.792l-3.688-.988a1.5 1.5 0 11.777-2.898l6.585 1.764 6.4-3.695-6.23-3.597-6.585 1.765a1.5 1.5 0 01-.777-2.898l3.688-.988-3.845-2.22a1.5 1.5 0 111.5-2.599l3.845 2.22-.988-3.687a1.5 1.5 0 012.898-.777l1.764 6.586 6.23 3.597v-7.39l-4.82-4.821a1.5 1.5 0 112.12-2.121l2.7 2.7V1.5a1.5 1.5 0 113 0v4.245l2.7-2.7a1.5 1.5 0 112.122 2.121l-4.822 4.821v7.39l6.231-3.597 1.765-6.586a1.5 1.5 0 112.897.777l-.988 3.688 3.846-2.22a1.5 1.5 0 011.5 2.597l-3.846 2.22 3.688.99a1.5 1.5 0 11-.776 2.897l-6.586-1.765-6.23 3.597 6.4 3.695 6.586-1.764a1.5 1.5 0 01.776 2.898l-3.687.988 3.675 2.122a1.5 1.5 0 11-1.5 2.598l-3.676-2.122.988 3.688a1.5 1.5 0 01-2.897.777l-1.765-6.587-6.4-3.695v7.194l4.82 4.822a1.5 1.5 0 01-2.12 2.121l-2.7-2.7v4.441a1.5 1.5 0 01-3 0v-4.44l-2.7 2.7z" fill="#33C1C3"/></svg>