<svg width="24" height="29" fill="none" xmlns="http://www.w3.org/2000/svg"><path d="M20.045 15.316a6.426 6.426 0 01.873-3.147 6.618 6.618 0 012.32-2.345 6.811 6.811 0 00-2.358-2.05 6.991 6.991 0 00-3.049-.803c-2.275-.233-4.48 1.329-5.64 1.329-1.18 0-2.966-1.306-4.888-1.267a7.328 7.328 0 00-3.516 1.024 7.108 7.108 0 00-2.543 2.583c-2.62 4.429-.666 10.937 1.844 14.517 1.256 1.753 2.723 3.71 4.643 3.641 1.88-.076 2.581-1.17 4.85-1.17 2.246 0 2.905 1.17 4.864 1.126 2.016-.032 3.286-1.76 4.498-3.53A14.363 14.363 0 0024 21.134a6.445 6.445 0 01-2.874-2.328 6.219 6.219 0 01-1.08-3.49zm-3.7-10.699A6.344 6.344 0 0017.855 0a6.77 6.77 0 00-4.345 2.195 6.1 6.1 0 00-1.228 2.072 6 6 0 00-.322 2.374c.84.008 1.671-.17 2.43-.52a5.534 5.534 0 001.955-1.504z" fill="#fff"/></svg>