<svg width="61" height="56" fill="none" xmlns="http://www.w3.org/2000/svg"><path d="M19.043 16.675l-.847-.847a4 4 0 00-5.657 0l-9.044 9.045a4 4 0 000 5.657l9.044 9.044a4 4 0 005.657 0l.847-.847m23.649-22.052l.847-.847a4 4 0 015.657 0l9.044 9.045a4 4 0 010 5.657l-9.044 9.044a4 4 0 01-5.657 0l-.847-.847" stroke="#33C1C3" stroke-width="3" stroke-linecap="round"/><rect x="16.052" y="27.701" width="20.79" height="20.79" rx="4" transform="rotate(-45 16.052 27.701)" stroke="#33C1C3" stroke-width="3" stroke-linecap="round"/></svg>