<svg width="32" height="26" fill="none" xmlns="http://www.w3.org/2000/svg"><path d="M27.107 2.591A26.062 26.062 0 0020.505.517a19.36 19.36 0 00-.845 1.755 24.24 24.24 0 00-7.317 0 18.743 18.743 0 00-.856-1.755 25.976 25.976 0 00-6.607 2.08C.702 8.91-.43 15.066.136 21.136c2.771 2.069 5.457 3.326 8.097 4.148a20.135 20.135 0 001.734-2.856 17.044 17.044 0 01-2.73-1.329c.228-.17.452-.347.669-.53 5.265 2.463 10.986 2.463 16.188 0 .22.183.443.36.67.53a17.01 17.01 0 01-2.736 1.332c.5 1.002 1.08 1.959 1.734 2.856 2.643-.823 5.33-2.08 8.102-4.152C32.529 14.1 30.729 8 27.107 2.591zM10.684 17.404c-1.58 0-2.877-1.476-2.877-3.273 0-1.797 1.269-3.275 2.877-3.275 1.609 0 2.905 1.476 2.877 3.275.003 1.797-1.268 3.273-2.877 3.273zm10.632 0c-1.581 0-2.877-1.476-2.877-3.273 0-1.797 1.268-3.275 2.877-3.275 1.608 0 2.904 1.476 2.877 3.275 0 1.797-1.27 3.273-2.877 3.273z" fill="#fff"/></svg>