<svg width="32" height="28" fill="none" xmlns="http://www.w3.org/2000/svg"><path d="M29.814.643L.834 11.858a.369.369 0 00-.05.024c-.236.133-1.876 1.136.437 2.036l.023.008 6.901 2.23a.38.38 0 00.319-.039L25.58 5.438a.375.375 0 01.137-.052c.238-.04.924-.113.49.438-.49.625-12.181 11.101-13.479 12.263a.394.394 0 00-.13.26l-.566 6.751a.442.442 0 00.177.354.43.43 0 00.51-.038l4.101-3.665a.38.38 0 01.477-.024l7.153 5.194.023.015c.174.107 2.044 1.195 2.584-1.235L31.994 2.22c.007-.074.074-.892-.51-1.375C30.87.34 30 .595 29.87.623a.376.376 0 00-.056.02z" fill="#fff"/></svg>