<svg width="40" height="40" viewBox="0 0 40 40" fill="none" xmlns="http://www.w3.org/2000/svg">
<rect x="11.5" y="6" width="24" height="31" rx="4" stroke="#33C1C3" stroke-width="3" stroke-linecap="round"/>
<path fill-rule="evenodd" clip-rule="evenodd" d="M22.8631 20.5L19.9237 17.5606C19.3379 16.9748 19.3379 16.0251 19.9237 15.4393C20.5095 14.8535 21.4592 14.8535 22.045 15.4393L27.3055 20.6998L28.3662 21.7605L27.3055 22.8211L22.045 28.0817C21.4592 28.6674 20.5095 28.6674 19.9237 28.0817C19.3379 27.4959 19.3379 26.5461 19.9237 25.9603L22.3841 23.5L5.5 23.5C4.67157 23.5 4 22.8284 4 22C4 21.1716 4.67157 20.5 5.5 20.5L22.8631 20.5Z" fill="#33C1C3"/>
</svg>
