<svg width="57" height="56" viewBox="0 0 57 56" fill="none" xmlns="http://www.w3.org/2000/svg">
<path d="M41.6864 10.5157C37.2839 7.15346 31.7749 5.57582 26.26 6.09793C20.745 6.62005 15.63 9.20348 11.9367 13.3322C8.2433 17.461 6.24347 22.8311 6.33661 28.3699C6.42975 33.9087 8.609 39.2086 12.4391 43.2108C16.2692 47.213 21.4681 49.623 26.9975 49.9594C32.5269 50.2958 37.9797 48.5338 42.2667 45.0254C46.5538 41.517 49.3594 36.5205 50.1233 31.0338C50.8872 25.5471 49.5531 19.9741 46.3875 15.4281" stroke="#33C1C3" stroke-width="3" stroke-linecap="round"/>
<rect x="34.8818" y="16.9175" width="6.08916" height="24.934" rx="3.04458" transform="rotate(45 34.8818 16.9175)" stroke="#33C1C3" stroke-width="3" stroke-linecap="round"/>
</svg>
