<svg width="61" height="56" viewBox="0 0 61 56" fill="none" xmlns="http://www.w3.org/2000/svg">
<path d="M19.0428 16.6754L18.196 15.8285C16.6339 14.2665 14.1012 14.2665 12.5391 15.8286L3.49493 24.8727C1.93283 26.4348 1.93284 28.9675 3.49493 30.5296L12.5391 39.5738C14.1012 41.1359 16.6339 41.1359 18.196 39.5738L19.0428 38.727" stroke="#33C1C3" stroke-width="3" stroke-linecap="round"/>
<path d="M42.692 16.6754L43.5389 15.8285C45.101 14.2665 47.6336 14.2665 49.1957 15.8286L58.2399 24.8727C59.802 26.4348 59.802 28.9675 58.2399 30.5296L49.1957 39.5738C47.6336 41.1359 45.101 41.1359 43.5389 39.5738L42.692 38.727" stroke="#33C1C3" stroke-width="3" stroke-linecap="round"/>
<rect x="16.0518" y="27.7012" width="20.7904" height="20.7904" rx="4" transform="rotate(-45 16.0518 27.7012)" stroke="#33C1C3" stroke-width="3" stroke-linecap="round"/>
</svg>
