<svg width="40" height="40" viewBox="0 0 40 40" fill="none" xmlns="http://www.w3.org/2000/svg">
<path fill-rule="evenodd" clip-rule="evenodd" d="M15.6749 36.7102C15.0891 37.2959 14.1393 37.2959 13.5536 36.7102C12.9678 36.1244 12.9678 35.1746 13.5536 34.5888L18.3745 29.7679V22.5731L11.9746 26.2681L10.2098 32.8545C9.99536 33.6547 9.17286 34.1296 8.37265 33.9151C7.57246 33.7007 7.09758 32.8782 7.312 32.078L8.30035 28.3894L4.62426 30.5118C3.90682 30.926 2.98944 30.6802 2.57522 29.9628C2.16101 29.2453 2.40682 28.328 3.12426 27.9137L6.79968 25.7917L3.11214 24.8037C2.31195 24.5893 1.83707 23.7668 2.05148 22.9666C2.2659 22.1664 3.0884 21.6915 3.8886 21.9059L10.4739 23.6704L16.8745 19.975L10.6447 16.3782L4.05855 18.143C3.25835 18.3574 2.43584 17.8825 2.22143 17.0823C2.00702 16.2821 2.48189 15.4596 3.28209 15.2452L6.97047 14.2569L3.12451 12.0364C2.40707 11.6222 2.16126 10.7048 2.57547 9.98739C2.98968 9.26995 3.90707 9.02414 4.62451 9.43835L8.47007 11.6586L7.48194 7.97084C7.26753 7.17064 7.7424 6.34813 8.5426 6.13372C9.3428 5.91931 10.1653 6.39418 10.3797 7.19438L12.1443 13.7799L18.3745 17.3769V9.98693L13.5536 5.166C12.9678 4.58022 12.9678 3.63047 13.5536 3.04468C14.1393 2.4589 15.0891 2.4589 15.6749 3.04468L18.3745 5.74428V1.5C18.3745 0.671573 19.046 0 19.8745 0C20.7029 0 21.3745 0.671573 21.3745 1.5V5.74478L24.0746 3.04468C24.6604 2.4589 25.6101 2.4589 26.1959 3.04468C26.7817 3.63047 26.7817 4.58021 26.1959 5.166L21.3745 9.98742V17.377L27.605 13.7798L29.3696 7.19427C29.584 6.39407 30.4065 5.9192 31.2067 6.13361C32.0069 6.34802 32.4817 7.17053 32.2673 7.97073L31.2792 11.6585L35.1248 9.43824C35.8422 9.02403 36.7596 9.26984 37.1738 9.98728C37.588 10.7047 37.3422 11.6221 36.6248 12.0363L32.7788 14.2568L36.4672 15.2451C37.2674 15.4595 37.7423 16.282 37.5278 17.0822C37.3134 17.8824 36.4909 18.3573 35.6907 18.1429L29.1046 16.3781L22.8745 19.975L29.2754 23.6705L35.8607 21.906C36.6609 21.6916 37.4834 22.1665 37.6978 22.9667C37.9122 23.7669 37.4373 24.5894 36.6371 24.8038L32.9496 25.7919L36.625 27.9139C37.3425 28.3281 37.5883 29.2455 37.1741 29.9629C36.7598 30.6803 35.8425 30.9261 35.125 30.5119L31.4489 28.3895L32.4373 32.0781C32.6517 32.8783 32.1768 33.7008 31.3766 33.9153C30.5764 34.1297 29.7539 33.6548 29.5395 32.8546L27.7747 26.2682L21.3745 22.5731V29.7674L26.1959 34.5888C26.7817 35.1746 26.7817 36.1244 26.1959 36.7102C25.6101 37.2959 24.6604 37.2959 24.0746 36.7102L21.3745 34.0101V38.451C21.3745 39.2794 20.7029 39.951 19.8745 39.951C19.046 39.951 18.3745 39.2794 18.3745 38.451V34.0106L15.6749 36.7102Z" fill="#33C1C3"/>
</svg>
